<svg width="864" height="155" xmlns="http://www.w3.org/2000/svg" xmlns:xlink="http://www.w3.org/1999/xlink" xml:space="preserve" overflow="hidden"><defs><clipPath id="clip0"><rect x="56" y="78" width="864" height="155"/></clipPath></defs><g clip-path="url(#clip0)" transform="translate(-56 -78)"><path d="M12.0433 26.841C7.70562 25.3427 3.93684 21.9894 1.73255 17.8513 0.594731 15.6395 0.239275 13.2138-0.0452079 7.22072-0.329574 0.0860546-0.258482-0.55601 0.808123-0.127966 1.51915 0.157434 3.15473 0.371456 4.50568 0.371456L6.92339 0.371456 6.92339 7.00672C6.92339 14.498 8.0612 17.1378 12.0433 19.635 16.7364 22.4888 23.1361 20.7765 26.1226 15.9249 27.2605 13.9986 27.5448 12.2863 27.5448 7.00672L27.5448 0.371456 29.9625 0.371456C31.3136 0.371456 32.9489 0.157434 33.5891-0.127966 34.7268-0.484629 34.7978 0.157434 34.5135 7.22072 34.3003 13.3565 33.9447 15.6395 32.7359 17.9226 30.5314 22.0607 26.1226 25.7707 21.7851 27.055 17.163 28.4819 16.6653 28.4819 12.0433 26.841Z" fill="#25EE32" fill-rule="evenodd" transform="matrix(1.00163 0 0 -1 166.242 106.33)"/><path d="M2.57202 9.57548C-1.06297 7.60451-0.77783 1.69173 2.9283 0.158795 6.91971-1.37414 10.9822 2.20271 9.91316 6.36356 9.12911 9.64839 5.56548 11.1813 2.57202 9.57548Z" fill="#25EE32" fill-rule="evenodd" transform="matrix(1.00163 0 0 -1 56.3262 114.796)"/><path d="M0.186326 54.9475 0.471213 52.0852 22.6976 52.0852 44.8526 52.0852 70.8549 25.9664 96.8568-0.152485 101.131-0.152485 105.406-0.152485 76.554 28.8286 47.7022 57.8098 23.8375 57.8098-0.0986777 57.8098 0.186326 54.9475Z" fill="#25EE32" fill-rule="evenodd" transform="matrix(1.00163 0 0 -1 70.0249 164.292)"/><path d="M1.23578 48.5756C-0.117162 47.2222-0.188351 46.2248-0.188351 31.9786L-0.188351 16.8774 8.28511 8.40084 16.8298-0.146984 25.7305 8.40084 34.6314 16.8774 34.6314 32.3348C34.7024 47.5072 34.7024 47.7921 33.1361 48.8605 31.783 49.7866 29.006 50.0002 17.1146 50.0002 3.58548 50.0002 2.5886 49.9289 1.23578 48.5756ZM21.8854 41.8086C24.52 40.455 26.1577 37.3921 26.1577 33.8307 26.1577 30.6964 24.0216 26.8498 21.9566 26.1375 20.6749 25.7815 20.4613 25.1403 20.4613 21.4362L20.4613 17.2336 17.6131 17.2336 14.7648 17.2336 14.7648 21.08C14.7648 24.5705 14.5512 25.1403 11.9166 27.7759 9.42436 30.269 9.06841 30.9813 9.06841 33.8307 9.06841 40.5976 15.9754 44.8715 21.8854 41.8086Z" fill="#25EE32" fill-rule="evenodd" transform="matrix(1.00163 0 0 -1 166.242 162.99)"/><path d="M2.55829 9.29801C-1.0767 7.38862-0.791565 1.66062 2.91457 0.175592 6.90597-1.30944 10.9685 2.15563 9.89942 6.18645 9.11537 9.36864 5.55174 10.8537 2.55829 9.29801Z" fill="#25EE32" fill-rule="evenodd" transform="matrix(1.00163 0 0 -1 65.7848 126.845)"/><path d="M-0.0925366 42.9073-0.0925366 40.0421 15.776 40.0421 31.716 40.0421 51.8019 19.9145 71.8161-0.141438 75.4616 0.0734299 79.0357 0.288299 57.1628 22.9946 35.2899 45.6293 17.6345 45.7009-0.0925366 45.7725-0.0925366 42.9073Z" fill="#25EE32" fill-rule="evenodd" transform="matrix(1.00163 0 0 -1 78.8313 164.292)"/><path d="M2.54458 9.31986C-1.09045 7.41047-0.805306 1.6824 2.90087 0.197354 6.89229-1.28769 10.9549 2.17741 9.88581 6.2083 9.10172 9.39052 5.53806 10.8756 2.54458 9.31986Z" fill="#25EE32" fill-rule="evenodd" transform="matrix(1.00163 0 0 -1 74.9173 138.893)"/><path d="M0.197504 30.5554 0.481591 27.701 8.86427 27.701 17.2468 27.701 30.9573 13.7854 44.7387-0.130108 48.5036-0.130108 52.3399-0.130108 36.143 16.6399 20.0172 33.41 10.0009 33.41-0.0867004 33.41 0.197504 30.5554Z" fill="#25EE32" fill-rule="evenodd" transform="matrix(1.00163 0 0 -1 88.6161 164.292)"/><path d="M23.0332 80.3789C22.0338 79.0962 18.6784 73.3231 15.4659 67.6214L9.68333 57.2875 10.3258 44.4586 11.0397 31.7013 5.25714 25.8571C1.25931 21.866-0.382616 19.7278-0.0971235 18.9439 0.188486 18.3024 0.616841 17.8035 0.902331 17.8035 1.25931 17.8035 4.54329 20.7969 8.18413 24.5029L14.8948 31.2736 14.4665 44.0311 14.0381 56.8596 19.1782 60.7795C25.4605 65.6259 25.2464 66.1248 25.3178 50.0178 25.3891 37.4029 25.3891 37.4029 20.9629 31.8438L18.2501 28.3516 18.2501 15.024C18.2501 5.61634 18.5357 1.41142 19.1068 0.84122 19.6779 0.271025 23.3188-0.0140731 30.8861-0.0140731 39.8812-0.0140731 41.9516 0.199721 42.2372 1.05501 42.5941 1.98149 38.5963 9.46487 36.2404 12.3157 35.5266 13.0997 34.0987 13.5273 32.0283 13.5273L28.9586 13.5273 28.9586 18.0173 28.9586 22.4362 37.8109 28.6366C42.5941 32.0576 47.0204 35.0508 47.5915 35.2648 48.3766 35.5497 50.3756 32.4853 54.9446 23.719 60.7984 12.6721 61.2983 11.3892 61.6552 6.7566 61.7981 4.04837 62.2976 1.34011 62.6545 0.84122 63.5826-0.299171 82.2155-0.370356 82.8579 0.769917 84.0002 2.48038 76.3616 11.3892 73.7201 11.3892 72.2922 11.3892 71.2928 12.387 68.6513 16.5207L65.3673 21.6522 65.3673 29.7058 65.3673 37.7594 86.1419 37.7594C105.56 37.7594 106.845 37.6881 106.488 36.5478 106.274 35.835 104.346 29.4206 102.133 22.2936 98.8493 11.6743 98.1355 8.68101 98.3498 5.18862L98.5637 1.05501 108.773 0.84122C120.552 0.627424 120.766 0.769917 116.197 6.7566 113.913 9.74996 113.056 10.3202 110.843 10.5339 109.415 10.6766 108.201 10.9615 108.201 11.1755 108.201 11.8881 118.339 35.9776 118.91 36.5478 119.195 36.904 121.123 31.9151 123.265 25.5007 125.906 17.2333 127.12 12.4582 127.262 8.89479 127.762-0.0852594 126.763 0.698614 137.828 0.698614 149.036 0.698614 149.108 0.769917 144.539 6.7566 142.183 9.89258 141.184 10.6766 139.613 10.6766 135.044 10.6766 135.33 8.25329 135.33 45.2427 135.33 72.0405 135.115 79.0962 134.402 79.6661 133.688 80.3076 131.332 78.3121 124.264 71.2564L114.984 61.9912 87.9267 61.9912 60.7984 61.9912 50.6612 72.3254 40.5953 82.6596 32.6708 82.6596 24.7467 82.6596 23.0332 80.3789Z" fill="#25EE32" fill-rule="evenodd" transform="matrix(1.00163 0 0 -1 69.0464 232.674)"/><path d="M-0.325538 40.6533-0.325538-0.0506453 20.352-0.0506453 41.0294-0.0506453 41.0294 5.30517 41.0294 10.6609 27.1257 10.6609 13.2218 10.6609 13.2218 46.009 13.2218 81.3571 6.44816 81.3571-0.325538 81.3571-0.325538 40.6533Z" fill="#25EE32" fill-rule="evenodd" transform="matrix(1.00163 0 0 -1 255.61 232.023)"/><path d="M-1.09109 40.6533-1.09109-0.0506453 5.74721-0.0506453 12.5855-0.0506453 12.5855 40.6533 12.5855 81.3571 5.74721 81.3571-1.09109 81.3571-1.09109 40.6533Z" fill="#25EE32" fill-rule="evenodd" transform="matrix(1.00163 0 0 -1 780.077 232.023)"/><path d="M-1.24247 76.0014-1.24247 70.6455 9.86148 70.6455 20.9656 70.6455 20.9656 35.2973 20.9656-0.0506453 27.7713-0.0506453 34.5767-0.0506453 34.5767 35.2973 34.5767 70.6455 45.3228 70.6455 56.0686 70.6455 56.0686 76.0014 56.0686 81.3571 27.4131 81.3571-1.24247 81.3571-1.24247 76.0014Z" fill="#25EE32" fill-rule="evenodd" transform="matrix(1.00163 0 0 -1 863.574 232.023)"/><path d="M22.422 65.0564C13.7737 62.6294 6.84071 56.7056 3.12398 48.7117-5.16704 31.0828 1.69449 9.45676 17.9191 1.89121 21.6359 0.178281 22.8508-0.0358206 30.2842-0.0358206 37.7891-0.0358206 38.861 0.106875 42.4348 1.89121 44.6504 2.96184 47.7954 5.03157 49.4391 6.38769L52.4411 9.02855 52.4411 4.67478 52.4411 0.320976 59.2312 0.320976 66.0212 0.320976 66.0212 32.7958 66.0212 65.3416 59.4458 65.1277 52.7987 64.9134 52.5841 60.5597 52.3698 56.2061 49.725 58.704C45.2222 62.9867 39.004 65.4133 31.8566 65.6985 28.14 65.8415 24.3518 65.6272 22.422 65.0564ZM38.5751 53.4939C43.1496 52.138 47.6524 48.2835 50.1539 43.5729 51.8693 40.2899 52.0839 39.1479 52.0839 32.7958 52.0839 26.8004 51.798 25.1587 50.4398 22.3752 47.1519 15.6662 41.5055 11.6693 34.4295 11.1697 26.3531 10.5274 19.6345 14.5242 16.0608 21.947 8.69892 37.1495 17.4188 53.9934 32.8571 54.4929 34.0723 54.5646 36.6455 54.0647 38.5751 53.4939Z" fill="#25EE32" fill-rule="evenodd" transform="matrix(1.00163 0 0 -1 297.685 232.349)"/><path d="M24.7713 64.7021C20.9195 63.4175 17.8524 61.7756 15.2132 59.4917L13.0021 57.6359 13.0021 61.2761 13.0021 64.9877 6.43989 64.7734-0.193728 64.5594-0.407663 32.2259-0.550403-0.0361746 6.22582-0.0361746 13.0021-0.0361746 13.0021 19.8065C13.0021 42.076 13.4301 45.0737 17.4244 49.1422 20.4202 52.2112 22.7028 53.2819 27.0538 53.9244 31.9754 54.5665 37.6816 52.8537 40.6061 49.7843 45.2424 45.0021 45.3854 43.9314 45.6706 20.8057L45.9559-0.0361746 52.2327-0.0361746 58.5809-0.0361746 58.7951 21.1625C59.0091 41.4335 59.0804 42.5755 60.5783 45.359 62.4328 48.8566 66.4986 52.5681 69.2088 53.2819 70.2788 53.5675 72.9181 53.8531 75.0578 53.8531 77.1978 53.8531 79.8371 53.5675 80.9067 53.2819 83.6173 52.5681 87.6831 48.8566 89.5376 45.359 91.0355 42.5755 91.1068 41.4335 91.3207 21.1625L91.606-0.0361746 97.9545-0.0361746 104.303-0.0361746 104.303 22.0191C104.303 42.1473 104.16 44.5026 102.876 48.7136 100.95 54.995 96.1 60.3481 89.8941 63.2032 85.9 64.9877 84.616 65.2729 78.2675 65.2729 71.848 65.2729 70.6354 65.059 66.6412 63.2032 63.7167 61.847 61.0062 59.8486 58.7951 57.4216L55.4425 53.7101 52.2327 57.279C47.5964 62.4894 41.8187 65.059 33.8301 65.3446 29.9069 65.5585 26.5544 65.2729 24.7713 64.7021Z" fill="#25EE32" fill-rule="evenodd" transform="matrix(1.00163 0 0 -1 375.638 232.023)"/><path d="M22.0316 65.0564C13.4257 62.6294 6.5267 56.7056 2.82823 48.7117-5.42217 31.0828 1.40574 9.45676 17.5509 1.89121 21.2494 0.178281 22.4584-0.0358206 29.8552-0.0358206 37.3231-0.0358206 38.3902 0.106875 41.9464 1.89121 44.1512 2.96184 47.2805 5.03157 48.9165 6.38769L51.9035 9.02855 51.9035 4.67478 51.9035 0.320976 58.6603 0.320976 65.4172 0.320976 65.4172 32.7958 65.4172 65.3416 58.8736 65.1277 52.2594 64.9134 52.0458 60.5597 51.8325 56.2061 49.2008 58.704C44.7201 62.9867 38.5325 65.4133 31.42 65.6985 27.7216 65.8415 23.952 65.6272 22.0316 65.0564ZM38.1056 53.4939C42.6576 52.138 47.1382 48.2835 49.6277 43.5729 51.3346 40.2899 51.5479 39.1479 51.5479 32.7958 51.5479 26.8004 51.2636 25.1587 49.9123 22.3752 46.6403 15.6662 41.0216 11.6693 33.9805 11.1697 25.9435 10.5274 19.2578 14.5242 15.7016 21.947 8.37586 37.1495 17.053 53.9934 32.4157 54.4929 33.6249 54.5646 36.1853 54.0647 38.1056 53.4939Z" fill="#25EE32" fill-rule="evenodd" transform="matrix(1.00163 0 0 -1 487.837 232.349)"/><path d="M16.212 64.6692C3.97995 61.3947-2.42055 50.9309 1.70429 41.0366 4.26445 34.8437 9.10042 31.7827 22.5414 27.7965 35.5559 23.9526 37.5471 22.6714 37.5471 18.1868 37.5471 14.6277 35.058 12.1364 30.4354 10.9974 23.0393 9.21778 14.9319 12.7057 13.723 18.1868L13.2251 20.2511 6.18463 20.2511-0.784909 20.2511-0.358193 17.9733C0.850856 11.2821 5.90009 5.23158 12.8695 2.02837 16.9943 0.106473 17.8477-0.0359593 26.524-0.0359593 34.4178-0.0359593 36.2671 0.177571 39.0405 1.53009 53.4773 8.22122 55.1839 25.2339 42.2408 32.6369 40.6761 33.5624 34.5601 35.8402 28.7286 37.6911 20.7635 40.1824 17.6344 41.5348 16.0698 43.0294 13.2962 45.8771 13.3673 49.1513 16.2831 51.9986 18.3455 53.9205 18.7722 54.0628 24.3905 54.0628 31.3599 54.0628 33.4934 52.995 35.7692 48.1549L37.1915 45.2362 43.8054 45.1652 50.4193 45.1652 49.9214 47.8699C48.8546 54.1341 44.7299 59.971 39.467 62.676 33.4934 65.8079 23.6082 66.6624 16.212 64.6692Z" fill="#25EE32" fill-rule="evenodd" transform="matrix(1.00163 0 0 -1 562.202 232.349)"/><path d="M16.2291 64.6692C3.9201 61.3947-2.52065 50.9309 1.63014 41.0366 4.20643 34.8437 9.07277 31.7827 22.5984 27.7965 35.6946 23.9526 37.6982 22.6714 37.6982 18.1868 37.6982 14.6277 35.1935 12.1364 30.5419 10.9974 23.0993 9.21778 14.9409 12.7057 13.7244 18.1868L13.2235 20.2511 6.13865 20.2511-0.874711 20.2511-0.445312 17.9733C0.77134 11.2821 5.85236 5.23158 12.8656 2.02837 17.0164 0.106473 17.875-0.0359593 26.6059-0.0359593 34.5494-0.0359593 36.4103 0.177571 39.2013 1.53009 53.7287 8.22122 55.446 25.2339 42.4215 32.6369 40.8471 33.5624 34.6926 35.8402 28.8245 37.6911 20.8092 40.1824 17.6604 41.5348 16.086 43.0294 13.295 45.8771 13.3665 49.1513 16.3007 51.9986 18.376 53.9205 18.8054 54.0628 24.459 54.0628 31.4723 54.0628 33.619 52.995 35.9092 48.1549L37.3407 45.2362 43.9959 45.1652 50.6515 45.1652 50.1506 47.8699C49.077 54.1341 44.9262 59.971 39.6305 62.676 33.619 65.8079 23.6718 66.6624 16.2291 64.6692Z" fill="#25EE32" fill-rule="evenodd" transform="matrix(1.00163 0 0 -1 619.28 232.349)"/><path d="M22.6496 65.0922C6.42465 60.6079-3.25346 45.2336-0.762789 27.7238 1.72788 10.3564 13.7544-0.0356057 31.4026-0.0356057 48.8374-0.0356057 61.5754 10.7123 64.2084 27.6527 66.9125 45.5895 56.2383 61.818 39.3726 65.3768 34.4624 66.3735 26.9193 66.3022 22.6496 65.0922ZM40.9382 52.0667C44.9946 49.7889 48.6951 44.9487 49.9758 40.3221 50.4027 38.6852 50.6163 34.6282 50.474 31.2827 50.2604 26.3002 49.8335 24.592 48.1259 21.389 44.4251 14.6982 38.6611 11.3529 30.6909 11.3529 23.0766 11.3529 16.3873 16.2642 13.8255 23.809 11.9752 29.1474 12.1887 38.4006 14.2525 43.0981 18.8068 53.5613 30.9756 57.6186 40.9382 52.0667Z" fill="#25EE32" fill-rule="evenodd" transform="matrix(1.00163 0 0 -1 803.234 232.674)"/><path d="M-0.751975 41.7637C-0.537847 18.8237-0.466472 17.8975 1.10427 14.5491 3.67438 8.84975 7.17262 5.14502 12.4557 2.58036 16.5251 0.585568 18.0957 0.229303 23.6643 0.0155917 31.2321-0.340671 36.2296 1.15542 41.584 5.28758L44.7966 7.70978 44.7966 4.14762 44.7966 0.585568 51.222 0.585568 57.6473 0.585568 57.6473 33.001 57.6473 65.4165 51.2933 65.4165 44.9396 65.4165 44.654 44.6136C44.4397 25.2355 44.2968 23.5257 42.9405 20.5335 36.8721 7.42479 17.0962 8.4222 13.0982 22.0296 12.1701 25.0218 11.956 29.7238 11.956 45.611L11.956 65.4165 5.45913 65.4165-0.96622 65.4165-0.751975 41.7637Z" fill="#25EE32" fill-rule="evenodd" transform="matrix(1.00163 0 0 -1 679.293 232.674)"/></g></svg>