<svg width="216" height="191" xmlns="http://www.w3.org/2000/svg" xmlns:xlink="http://www.w3.org/1999/xlink" xml:space="preserve" overflow="hidden"><defs><clipPath id="clip0"><rect x="52" y="273" width="216" height="191"/></clipPath></defs><g clip-path="url(#clip0)" transform="translate(-52 -273)"><path d="M14.8127 33.0133C9.47759 31.1705 4.84215 27.046 2.13096 21.9564 0.731495 19.236 0.294298 16.2524-0.0556039 8.88119-0.405362 0.105844-0.317923-0.68387 0.993958-0.157394 1.8685 0.193637 3.88018 0.456876 5.5418 0.456876L8.51548 0.456876 8.51548 8.61797C8.51548 17.832 9.91495 21.0788 14.8127 24.1503 20.585 27.6603 28.4564 25.5543 32.1298 19.587 33.5293 17.2177 33.879 15.1117 33.879 8.61797L33.879 0.456876 36.8527 0.456876C38.5145 0.456876 40.5258 0.193637 41.3132-0.157394 42.7126-0.596074 42.7999 0.193637 42.4502 8.88119 42.1879 16.428 41.7506 19.236 40.2639 22.0441 37.5523 27.1338 32.1298 31.6969 26.7948 33.2765 21.1098 35.0315 20.4976 35.0315 14.8127 33.0133Z" fill="#25EE32" fill-rule="evenodd" transform="matrix(1 0 0 -1.00187 187.373 307.91)"/><path d="M3.16348 11.7775C-1.30741 9.35323-0.956699 2.08076 3.60169 0.195311 8.51096-1.69014 13.5077 2.70924 12.1928 7.82692 11.2284 11.8671 6.84531 13.7526 3.16348 11.7775Z" fill="#25EE32" fill-rule="evenodd" transform="matrix(1 0 0 -1.00187 52.4005 318.342)"/><path d="M0.229173 67.5832 0.579573 64.0627 27.9171 64.0627 55.1669 64.0627 87.1486 31.9376 119.13-0.187551 124.387-0.187551 129.644-0.187551 94.1583 35.458 58.6718 71.1037 29.3191 71.1037-0.12137 71.1037 0.229173 67.5832Z" fill="#25EE32" fill-rule="evenodd" transform="matrix(1 0 0 -1.00187 69.222 379.334)"/><path d="M1.51995 59.7459C-0.144105 58.0814-0.231664 56.8547-0.231664 39.3323L-0.231664 20.7585 10.1903 10.3327 20.6999-0.180785 31.6474 10.3327 42.5952 20.7585 42.5952 39.7704C42.6825 58.4319 42.6825 58.7823 40.7561 60.0964 39.0918 61.2355 35.6762 61.4982 21.0503 61.4982 4.41 61.4982 3.18387 61.4105 1.51995 59.7459ZM26.9182 51.4229C30.1586 49.758 32.1729 45.9908 32.1729 41.6104 32.1729 37.7553 29.5456 33.0242 27.0058 32.1481 25.4293 31.7101 25.1666 30.9215 25.1666 26.3657L25.1666 21.1966 21.6634 21.1966 18.1601 21.1966 18.1601 25.9276C18.1601 30.2207 17.8974 30.9215 14.6569 34.1632 11.5916 37.2297 11.1538 38.1057 11.1538 41.6104 11.1538 49.9334 19.6491 55.1901 26.9182 51.4229Z" fill="#25EE32" fill-rule="evenodd" transform="matrix(1 0 0 -1.00187 187.373 377.729)"/><path d="M3.14659 11.4362C-1.3243 9.08769-0.973592 2.04249 3.5848 0.215971 8.49405-1.61055 13.4908 2.65134 12.1759 7.60908 11.2115 11.523 6.82841 13.3496 3.14659 11.4362Z" fill="#25EE32" fill-rule="evenodd" transform="matrix(1 0 0 -1.00187 64.0154 333.189)"/><path d="M-0.113816 52.7742-0.113816 49.2501 19.4038 49.2501 39.0093 49.2501 63.7142 24.4941 88.3309-0.173964 92.8146 0.0903158 97.2106 0.354596 70.3078 28.2824 43.4051 56.1221 21.6897 56.2102-0.113816 56.2983-0.113816 52.7742Z" fill="#25EE32" fill-rule="evenodd" transform="matrix(1 0 0 -1.00187 80.0358 379.334)"/><path d="M3.12973 11.463C-1.34121 9.11457-0.990494 2.06928 3.56795 0.242738 8.47723-1.58381 13.4741 2.67813 12.1591 7.63596 11.1947 11.55 6.81158 13.3765 3.12973 11.463Z" fill="#25EE32" fill-rule="evenodd" transform="matrix(1 0 0 -1.00187 75.2297 348.036)"/><path d="M0.242921 37.5818 0.592337 34.0711 10.9027 34.0711 21.2129 34.0711 38.0762 16.9555 55.0267-0.160027 59.6574-0.160027 64.3759-0.160027 44.4544 20.4664 24.6204 41.0929 12.3006 41.0929-0.106638 41.0929 0.242921 37.5818Z" fill="#25EE32" fill-rule="evenodd" transform="matrix(1 0 0 -1.00187 92.0512 379.334)"/><path d="M28.3299 98.8627C27.1006 97.2851 22.9737 90.1845 19.0225 83.1715L11.9101 70.4612 12.7003 54.6823 13.5784 38.9913 6.46606 31.8032C1.5489 26.8942-0.470601 24.2644-0.119458 23.3003 0.231829 22.5112 0.75869 21.8976 1.10983 21.8976 1.5489 21.8976 5.58806 25.5793 10.0661 30.1376L18.3201 38.4652 17.7932 54.1564 17.2663 69.935 23.5883 74.7563C31.3154 80.7172 31.052 81.3307 31.1398 61.5198 31.2276 46.004 31.2276 46.004 25.7836 39.1666L22.4468 34.8712 22.4468 18.4789C22.4468 6.90787 22.7981 1.73598 23.5006 1.03467 24.203 0.333349 28.6812-0.0173093 37.9887-0.0173093 49.0523-0.0173093 51.5987 0.245648 51.95 1.29762 52.3889 2.43715 47.4719 11.6414 44.5742 15.1478 43.6962 16.1121 41.94 16.638 39.3935 16.638L35.6179 16.638 35.6179 22.1606 35.6179 27.5955 46.5058 35.2219C52.3889 39.4295 57.8331 43.1111 58.5356 43.3742 59.5012 43.7247 61.96 39.9556 67.5796 29.1734 74.7796 15.5862 75.3943 14.0083 75.8333 8.31034 76.0091 4.97932 76.6235 1.64828 77.0625 1.03467 78.2039-0.367968 101.122-0.455522 101.912 0.946966 103.317 3.05077 93.9216 14.0083 90.6727 14.0083 88.9164 14.0083 87.6873 15.2355 84.4383 20.3197L80.3991 26.6313 80.3991 36.5369 80.3991 46.4426 105.951 46.4426C129.834 46.4426 131.415 46.3548 130.976 44.9522 130.713 44.0755 128.342 36.1862 125.62 27.4202 121.581 14.359 120.703 10.6773 120.966 6.3818L121.229 1.29762 133.786 1.03467C148.274 0.771706 148.537 0.946966 142.918 8.31034 140.108 11.992 139.054 12.6934 136.332 12.9563 134.576 13.1317 133.083 13.4822 133.083 13.7454 133.083 14.6219 145.552 44.2509 146.254 44.9522 146.605 45.3904 148.976 39.2543 151.611 31.3648 154.859 21.1963 156.352 15.3231 156.528 10.9402 157.142-0.104866 155.913 0.859266 169.523 0.859266 183.309 0.859266 183.397 0.946966 177.777 8.31034 174.879 12.1675 173.65 13.1317 171.718 13.1317 166.099 13.1317 166.45 10.1512 166.45 55.6467 166.45 88.6068 166.186 97.2851 165.308 97.986 164.43 98.775 161.533 96.3207 152.84 87.6424L141.425 76.2466 108.146 76.2466 74.7796 76.2466 62.3112 88.9573 49.9306 101.668 40.1838 101.668 30.4374 101.668 28.3299 98.8627Z" fill="#25EE32" fill-rule="evenodd" transform="matrix(1 0 0 -1.00187 68.0205 463.599)"/><path d="M-0.400399 50.0019-0.400399-0.0622916 25.0322-0.0622916 50.4645-0.0622916 50.4645 6.52514 50.4645 13.1124 33.3635 13.1124 16.2622 13.1124 16.2622 56.5891 16.2622 100.066 7.93097 100.066-0.400399 100.066-0.400399 50.0019Z" fill="#25EE32" fill-rule="evenodd" transform="matrix(1 0 0 -1.00187 297.113 462.796)"/><path d="M-1.34199 50.0019-1.34199-0.0622916 7.06883-0.0622916 15.4796-0.0622916 15.4796 50.0019 15.4796 100.066 7.06883 100.066-1.34199 100.066-1.34199 50.0019Z" fill="#25EE32" fill-rule="evenodd" transform="matrix(1 0 0 -1.00187 941.136 462.796)"/><path d="M-1.52818 93.4787-1.52818 86.891 12.1292 86.891 25.7868 86.891 25.7868 43.4143 25.7868-0.0622916 34.1575-0.0622916 42.5279-0.0622916 42.5279 43.4143 42.5279 86.891 55.7452 86.891 68.9621 86.891 68.9621 93.4787 68.9621 100.066 33.7169 100.066-1.52818 100.066-1.52818 93.4787Z" fill="#25EE32" fill-rule="evenodd" transform="matrix(1 0 0 -1.00187 1043.67 462.796)"/><path d="M27.5781 80.0167C16.941 77.0316 8.41379 69.7455 3.84237 59.9134-6.35524 38.2305 2.08415 11.6314 22.0398 2.32611 26.6112 0.219278 28.1056-0.0440579 37.2483-0.0440579 46.479-0.0440579 47.7975 0.131452 52.1931 2.32611 54.9182 3.64294 58.7863 6.18863 60.8081 7.8566L64.5004 11.1048 64.5004 5.74979 64.5004 0.394788 72.8519 0.394788 81.2034 0.394788 81.2034 40.3375 81.2034 80.3675 73.1158 80.1044 64.9402 79.8408 64.6762 74.486 64.4127 69.1311 61.1598 72.2035C55.6215 77.471 47.9733 80.4556 39.1823 80.8065 34.611 80.9823 29.9517 80.7188 27.5781 80.0167ZM47.4458 65.7953C53.0722 64.1275 58.6105 59.3867 61.6872 53.5929 63.7971 49.5549 64.0611 48.1503 64.0611 40.3375 64.0611 32.9634 63.7094 30.9442 62.0389 27.5206 57.9949 19.2687 51.05 14.3528 42.3469 13.7383 32.4132 12.9483 24.1496 17.8642 19.7541 26.9939 10.6993 45.6924 21.4244 66.4097 40.4128 67.024 41.9076 67.1122 45.0724 66.4974 47.4458 65.7953Z" fill="#25EE32" fill-rule="evenodd" transform="matrix(1 0 0 -1.00187 348.779 463.197)"/><path d="M30.4677 79.5809C25.7302 78.0009 21.9578 75.9815 18.7116 73.1723L15.992 70.8898 15.992 75.3671 15.992 79.9321 7.9208 79.6686-0.238277 79.4055-0.501409 39.6365-0.676973-0.0444933 7.65751-0.0444933 15.992-0.0444933 15.992 24.3611C15.992 51.7517 16.5184 55.4388 21.4313 60.4428 25.1161 64.2177 27.9235 65.5345 33.275 66.3248 39.3284 67.1146 46.3468 65.0079 49.9438 61.2327 55.6463 55.3507 55.8221 54.0339 56.173 25.5902L56.5238-0.0444933 64.2441-0.0444933 72.0521-0.0444933 72.3156 26.029C72.5788 50.9615 72.6665 52.3661 74.5088 55.7897 76.7897 60.0916 81.7905 64.6566 85.124 65.5345 86.4401 65.8858 89.6862 66.237 92.318 66.237 94.9501 66.237 98.1963 65.8858 99.512 65.5345 102.846 64.6566 107.847 60.0916 110.128 55.7897 111.97 52.3661 112.058 50.9615 112.321 26.029L112.672-0.0444933 120.48-0.0444933 128.288-0.0444933 128.288 27.0826C128.288 51.8394 128.113 54.7364 126.533 59.9158 124.165 67.6416 118.199 74.2257 110.566 77.7373 105.653 79.9321 104.074 80.283 96.2658 80.283 88.3701 80.283 86.8786 80.0199 81.966 77.7373 78.3689 76.0692 75.0351 73.6113 72.3156 70.6263L68.1919 66.0612 64.2441 70.4508C58.5416 76.8594 51.4353 80.0199 41.6096 80.3711 36.7842 80.6342 32.6609 80.283 30.4677 79.5809Z" fill="#25EE32" fill-rule="evenodd" transform="matrix(1 0 0 -1.00187 444.502 462.796)"/><path d="M27.098 80.0167C16.5131 77.0316 8.02758 69.7455 3.4786 59.9134-6.66904 38.2305 1.729 11.6314 21.5868 2.32611 26.1358 0.219278 27.6229-0.0440579 36.7207-0.0440579 45.9059-0.0440579 47.2183 0.131452 51.5923 2.32611 54.3042 3.64294 58.1531 6.18863 60.1653 7.8566L63.8392 11.1048 63.8392 5.74979 63.8392 0.394788 72.1498 0.394788 80.4604 0.394788 80.4604 40.3375 80.4604 80.3675 72.4121 80.1044 64.2769 79.8408 64.0142 74.486 63.7519 69.1311 60.5149 72.2035C55.0039 77.471 47.3934 80.4556 38.6453 80.8065 34.0964 80.9823 29.46 80.7188 27.098 80.0167ZM46.8683 65.7953C52.467 64.1275 57.9781 59.3867 61.04 53.5929 63.1395 49.5549 63.4018 48.1503 63.4018 40.3375 63.4018 32.9634 63.0522 30.9442 61.3901 27.5206 57.3657 19.2687 50.4549 14.3528 41.7946 13.7383 31.9094 12.9483 23.6863 17.8642 19.3123 26.9939 10.302 45.6924 20.9745 66.4097 39.87 67.024 41.3573 67.1122 44.5065 66.4974 46.8683 65.7953Z" fill="#25EE32" fill-rule="evenodd" transform="matrix(1 0 0 -1.00187 582.278 463.197)"/><path d="M19.9401 79.5405C4.89518 75.5129-2.97718 62.6429 2.0962 50.4733 5.2451 42.8564 11.1931 39.0914 27.725 34.1885 43.7323 29.4607 46.1814 27.8849 46.1814 22.369 46.1814 17.9915 43.1199 14.9272 37.4343 13.5263 28.3373 11.3375 18.3656 15.6275 16.8787 22.369L16.2664 24.908 7.60684 24.908-0.965406 24.908-0.440563 22.1064C1.04652 13.8765 7.25687 6.43462 15.829 2.49481 20.9024 0.130957 21.9519-0.0442285 32.6234-0.0442285 42.3325-0.0442285 44.607 0.218406 48.0182 1.88195 65.7749 10.1118 67.8739 31.0367 51.9544 40.1421 50.0299 41.2804 42.5075 44.0819 35.335 46.3584 25.5382 49.4228 21.6896 51.0861 19.7652 52.9244 16.3538 56.4269 16.4413 60.4541 20.0276 63.9561 22.5642 66.32 23.089 66.495 29.9993 66.495 38.5714 66.495 41.1954 65.1817 43.9946 59.2285L45.7441 55.6387 53.8789 55.5514 62.0136 55.5514 61.4013 58.878C60.0892 66.5827 55.0159 73.7619 48.5428 77.0889 41.1954 80.941 29.0371 81.992 19.9401 79.5405Z" fill="#25EE32" fill-rule="evenodd" transform="matrix(1 0 0 -1.00187 673.594 463.197)"/><path d="M19.9611 79.5405C4.82156 75.5129-3.10029 62.6429 2.005 50.4733 5.17373 42.8564 11.1591 39.0914 27.795 34.1885 43.9029 29.4607 46.3673 27.8849 46.3673 22.369 46.3673 17.9915 43.2865 14.9272 37.5653 13.5263 28.4112 11.3375 18.3767 15.6275 16.8805 22.369L16.2643 24.908 7.55029 24.908-1.07586 24.908-0.547716 22.1064C0.948716 13.8765 7.19816 6.43462 15.8241 2.49481 20.9295 0.130957 21.9856-0.0442285 32.7242-0.0442285 42.4943-0.0442285 44.7832 0.218406 48.216 1.88195 66.084 10.1118 68.1964 31.0367 52.1767 40.1421 50.2402 41.2804 42.6705 44.0819 35.4529 46.3584 25.5945 49.4228 21.7216 51.0861 19.7852 52.9244 16.3523 56.4269 16.4403 60.4541 20.0492 63.9561 22.6017 66.32 23.1299 66.495 30.0836 66.495 38.7096 66.495 41.35 65.1817 44.1668 59.2285L45.9275 55.6387 54.1132 55.5514 62.2992 55.5514 61.6832 58.878C60.3627 66.5827 55.2574 73.7619 48.7439 77.0889 41.35 80.941 29.1153 81.992 19.9611 79.5405Z" fill="#25EE32" fill-rule="evenodd" transform="matrix(1 0 0 -1.00187 743.684 463.197)"/><path d="M27.8581 80.0607C7.90206 74.5453-4.00162 55.6355-0.938199 34.0991 2.12522 12.738 16.9173-0.0437936 38.6239-0.0437936 60.068-0.0437936 75.7352 13.1756 78.9737 34.0117 82.2996 56.0733 69.1708 76.0336 48.4267 80.4108 42.3874 81.6367 33.1096 81.549 27.8581 80.0607ZM50.3523 64.0398C55.3415 61.2383 59.8929 55.285 61.4682 49.5946 61.9932 47.5812 62.256 42.5912 62.0809 38.4764 61.8182 32.3482 61.2931 30.2471 59.1928 26.3076 54.641 18.0782 47.5516 13.9636 37.7486 13.9636 28.3833 13.9636 20.1557 20.0042 17.0048 29.2841 14.7291 35.8501 14.9916 47.2312 17.53 53.0089 23.1316 65.8782 38.0987 70.8686 50.3523 64.0398Z" fill="#25EE32" fill-rule="evenodd" transform="matrix(1 0 0 -1.00187 969.573 463.599)"/><path d="M-0.924898 51.3676C-0.661529 23.1524-0.573741 22.0132 1.3582 17.8948 4.51934 10.8848 8.82203 6.32817 15.3201 3.17374 20.3252 0.720224 22.257 0.282033 29.1062 0.0191771 38.4142-0.419011 44.5609 1.42112 51.1466 6.50351L55.098 9.48272 55.098 5.1014 55.098 0.720224 63.0009 0.720224 70.9038 0.720224 70.9038 40.5899 70.9038 80.4596 63.0886 80.4596 55.2738 80.4596 54.9226 54.8729C54.6591 31.0387 54.4832 28.9357 52.8151 25.2554 45.3512 9.13219 21.0277 10.359 16.1103 27.0955 14.9687 30.7758 14.7054 36.5591 14.7054 56.0997L14.7054 80.4596 6.7145 80.4596-1.18841 80.4596-0.924898 51.3676Z" fill="#25EE32" fill-rule="evenodd" transform="matrix(1 0 0 -1.00187 817.378 463.599)"/></g></svg>